<svg version="1.1" xmlns="http://www.w3.org/2000/svg" xmlns:xlink="http://www.w3.org/1999/xlink" width="24px" height="24px" viewBox="0,0,256,256"><g fill-rule="nonzero" stroke="none" stroke-width="1" stroke-linecap="butt" stroke-linejoin="miter" stroke-miterlimit="10" stroke-dasharray="" stroke-dashoffset="0" font-family="none" font-weight="none" font-size="none" text-anchor="none" style="mix-blend-mode: normal"><g transform="scale(10.66667,10.66667)"><path d="M14.39844,2.02344l-7.92969,7.92969l-3.50195,11.08008l11.08203,-3.50195l7.92773,-7.92969l-1.41406,-1.41406l-6.55664,6.55859c-0.13008,-0.18143 -0.27077,-0.35866 -0.4375,-0.52539c-0.7879,-0.7879 -1.71702,-1.0978 -2.53125,-1.28711c-0.17766,-0.80494 -0.47618,-1.72123 -1.25586,-2.50195h-0.00195c-0.16606,-0.16606 -0.34293,-0.30795 -0.52344,-0.4375l6.55664,-6.55664zM8.04297,11.60547c0.11257,0.07732 0.23209,0.15006 0.32227,0.24023c0.49119,0.49185 0.7652,1.37753 0.85938,2.04102l0.10352,0.73047l0.72852,0.11719c0.68248,0.11013 1.60631,0.40905 2.09766,0.90039c0.09108,0.09108 0.16788,0.20698 0.24609,0.32031l-4.875,1.53906l-1.01953,-1.01953z"></path></g></g></svg>