<svg version="1.1" xmlns="http://www.w3.org/2000/svg" xmlns:xlink="http://www.w3.org/1999/xlink" width="24px" height="24px" viewBox="0,0,256,256"><g fill-rule="nonzero" stroke="none" stroke-width="1" stroke-linecap="butt" stroke-linejoin="miter" stroke-miterlimit="10" stroke-dasharray="" stroke-dashoffset="0" font-family="none" font-weight="none" font-size="none" text-anchor="none" style="mix-blend-mode: normal"><g transform="scale(8,8)"><path d="M9.75,3.5c-2.69922,1.35547 -4.89453,3.55078 -6.25,6.25l1.78125,0.875c1.16016,-2.3125 3.03125,-4.18359 5.34375,-5.34375zM22.25,3.5l-0.875,1.78125c2.3125,1.16016 4.18359,3.03125 5.34375,5.34375l1.78125,-0.875c-1.35547,-2.69922 -3.55078,-4.89453 -6.25,-6.25zM16,5c-6.0625,0 -11,4.9375 -11,11c0,2.95313 1.16406,5.64844 3.0625,7.625l-2.09375,3.3125l1.6875,1.0625l1.9375,-3.0625c1.80469,1.29688 4.02344,2.0625 6.40625,2.0625c2.38281,0 4.60156,-0.76562 6.40625,-2.0625l1.90625,3.0625l1.6875,-1.0625l-2.0625,-3.3125c1.89844,-1.97656 3.0625,-4.67187 3.0625,-7.625c0,-6.0625 -4.9375,-11 -11,-11zM16,7c4.98047,0 9,4.01953 9,9c0,4.98047 -4.01953,9 -9,9c-4.98047,0 -9,-4.01953 -9,-9c0,-4.98047 4.01953,-9 9,-9zM15,9v8h6v-2h-4v-6z"></path></g></g></svg>